<?xml version="1.0" standalone="no"?>
<!DOCTYPE svg PUBLIC "-//W3C//DTD SVG 20010904//EN"
 "http://www.w3.org/TR/2001/REC-SVG-20010904/DTD/svg10.dtd">
<svg version="1.0" xmlns="http://www.w3.org/2000/svg"
 width="610.000000pt" height="450.000000pt" viewBox="0 0 610.000000 450.000000"
 preserveAspectRatio="xMidYMid meet">
<g transform="translate(0.000000,450.000000) scale(0.100000,-0.100000)"
fill="#000000" stroke="none">
<path d="M3635 3663 c-39 -10 -1342 -321 -1479 -354 -93 -22 -148 -40 -165
-55 l-25 -21 13 -374 c7 -206 21 -594 30 -864 l18 -490 101 -215 c92 -195 107
-220 157 -267 44 -42 70 -57 125 -74 127 -38 157 -33 765 145 308 89 558 168
582 182 23 13 54 40 68 58 18 23 88 220 216 603 172 515 191 579 206 692 13
101 14 132 4 169 -14 55 -461 806 -502 845 -29 27 -62 32 -114 20z"/>
</g>
</svg>
