<?xml version="1.0" encoding="utf-8"?>
<!-- Generator: Adobe Illustrator 25.1.0, SVG Export Plug-In . SVG Version: 6.00 Build 0)  -->
<svg version="1.1" id="Laag_1" xmlns="http://www.w3.org/2000/svg" xmlns:xlink="http://www.w3.org/1999/xlink" x="0px" y="0px"
	 viewBox="0 0 800 800" style="enable-background:new 0 0 800 800;" xml:space="preserve">
<style type="text/css">
	.st0{clip-path:url(#SVGID_2_);}
	.st1{fill:#FDCB00;}
	.st2{fill:#F0B600;}
	.st3{fill:#1D1D1B;}
</style>
<g>
	<defs>
		<rect id="SVGID_1_" width="800" height="800"/>
	</defs>
	<clipPath id="SVGID_2_">
		<use xlink:href="#SVGID_1_"  style="overflow:visible;"/>
	</clipPath>
	<g class="st0">
		<g>
			<g>
				<rect y="1" class="st1" width="799" height="799"/>
			</g>
			<g>
				<g>
					<path class="st2" d="M981.7,210.7c-101.8,5.3-143.1,122.1-233.5,154.7S505,296.9,395,309.8C281.1,323.2,129.2,474.7,52,365.3
						C-7.9,255.5-79.6,215.9-181.5,210.7c-3.9-0.2-7.9-0.1-11.8,0.2v962.3h592.6h1.7h592.6V210.9
						C989.6,210.6,985.6,210.5,981.7,210.7z"/>
				</g>
			</g>
		</g>
	</g>
</g>
<g>
	<path class="st3" d="M235,208.5c-1-2.6-1.7-5.3-1.9-8.1C233.5,203.2,234.3,205.9,235,208.5z"/>
	<path class="st1" d="M232.8,209.4c-1.1-2.9-1.8-5.8-2-8.8l4.7-0.5c0.3,2.6,1,5.1,1.8,7.7L232.8,209.4z"/>
</g>
<g>
	<path class="st3" d="M293.3,200.4c-0.2,2.8-0.9,5.6-1.9,8.1C292.2,205.9,293,203.2,293.3,200.4z"/>
	<path class="st1" d="M293.6,209.4l-4.4-1.5c0.8-2.6,1.5-5.2,1.8-7.7l4.7,0.5C295.4,203.5,294.7,206.5,293.6,209.4z"/>
</g>
<g>
	<path class="st3" d="M227.1,200.6c-1-2.6-1.7-5.3-1.9-8.1C225.5,195.2,226.3,198,227.1,200.6z"/>
	<path class="st1" d="M224.9,201.4c-1.1-2.9-1.8-5.8-2-8.8l4.7-0.5c0.3,2.6,1,5.1,1.8,7.7L224.9,201.4z"/>
</g>
<g>
	<path d="M534.2,691.4c-7.7,0-14.2,5.1-16.3,12.1H280.4c-1.6-5.5-6-9.8-11.4-11.4v-140h20.9c65,0,107.4-35.7,107.4-89.2
		c0-38.8-28.9-61.4-55.5-69c25.4-11.5,47.2-34.1,47.2-67c0-49.1-46.4-80-99.9-80H166.2v75.5H0.5v10h165.7v219.6H259v140.1
		c-6.9,2.2-11.9,8.6-11.9,16.2c0,9.4,7.6,17,17,17c7.6,0,14.1-5,16.2-11.9h237.5c1.8,5.8,6.6,10.2,12.6,11.5v75.5h10v-76.3
		c6.3-2.5,10.7-8.6,10.7-15.8C551.2,699,543.6,691.4,534.2,691.4z M243.9,305.6h33.7c19.8,0,35.7,10.3,35.7,29.7
		c0,19.4-14.7,30.9-36.5,30.9h-32.9V305.6z M243.9,491.9v-67H276c23,0,40,11.5,40,33.3c0,21.4-15.5,33.7-38.8,33.7H243.9z"/>
	<path d="M800.5,132.6v-10.2h-260V0.5h-10v121.8h-184c-1.6-5.4-5.7-9.7-11-11.4V1h-10v109.7c-7.1,2-12.3,8.6-12.3,16.3
		c0,9.4,7.6,17,17,17c7.5,0,13.8-4.8,16.1-11.5h184.2V247H422.2v305.1h123.6c64.8,0,107.1-35.4,107.4-88.6h147.3v-10H652.6
		c-4.3-33.1-30.6-52.6-54.9-59.5c25.4-11.5,47.2-34.1,47.2-67c0-49.1-46.4-80-99.9-80h-4.6V132.6H800.5z M533.2,491.9h-33.3v-67H532
		c23,0,40,11.5,40,33.3C572,479.6,556.6,491.9,533.2,491.9z M569.2,335.4c0,19.4-14.7,30.9-36.5,30.9h-32.9v-60.6h33.7
		C553.4,305.6,569.2,315.9,569.2,335.4z"/>
</g>
</svg>
