<?xml version="1.0" standalone="no"?>
<!DOCTYPE svg PUBLIC "-//W3C//DTD SVG 20010904//EN"
 "http://www.w3.org/TR/2001/REC-SVG-20010904/DTD/svg10.dtd">
<svg version="1.0" xmlns="http://www.w3.org/2000/svg"
 width="93.000000pt" height="202.000000pt" viewBox="0 0 93.000000 202.000000"
 preserveAspectRatio="xMidYMid meet">
<metadata>
Created by potrace 1.15, written by Peter Selinger 2001-2017
</metadata>
<g transform="translate(0.000000,202.000000) scale(0.100000,-0.100000)"
fill="#000000" stroke="none">
<path d="M455 1830 c-12 -4 -26 -14 -32 -21 -13 -16 -43 -154 -43 -197 0 -16
-7 -35 -15 -42 -20 -17 -19 -40 4 -64 19 -21 19 -24 -34 -301 -30 -154 -80
-409 -111 -566 -45 -224 -55 -296 -50 -332 8 -52 38 -94 91 -127 59 -36 156
-8 207 60 16 22 70 287 225 1109 15 77 18 84 45 93 28 10 29 12 22 54 -3 24
-2 50 3 57 20 25 47 165 37 191 -23 59 -267 120 -349 86z"/>
</g>
</svg>
