<svg id="Layer_1" data-name="Layer 1" xmlns="http://www.w3.org/2000/svg" viewBox="0 0 94.487 94.489"><defs><style>.cls-1{fill:#4a5156;}</style></defs><title>plaato_icon</title><path class="cls-1" d="M120.571,98.96a15.28,15.28,0,1,0,0,21.609A15.28,15.28,0,0,0,120.571,98.96Zm-10.8,17.938a7.134,7.134,0,1,1,7.134-7.134A7.135,7.135,0,0,1,109.766,116.9Z" transform="translate(-94.486 -94.485)"/><path class="cls-1" d="M157.452,103.1q-7.843,0-15.689-.009v15.325h15.689c20.615,0,20.736,35.024,0,35.024h-24.3v-11.7h-16.2v47.234h16.2V168.29h24.3C199.542,168.29,199.419,103.1,157.452,103.1Z" transform="translate(-94.486 -94.485)"/></svg>