<?xml version="1.0" encoding="utf-8"?>
<!-- Generator: Adobe Illustrator 16.0.0, SVG Export Plug-In . SVG Version: 6.00 Build 0)  -->
<!DOCTYPE svg PUBLIC "-//W3C//DTD SVG 1.1//EN" "http://www.w3.org/Graphics/SVG/1.1/DTD/svg11.dtd">
<svg version="1.1" id="Layer_1" xmlns="http://www.w3.org/2000/svg" xmlns:xlink="http://www.w3.org/1999/xlink" x="0px" y="0px"
	 width="283.46px" height="283.46px" viewBox="0 0 283.46 283.46" enable-background="new 0 0 283.46 283.46" xml:space="preserve">
<g>
	<path fill="none" d="M226.353,191.482c-0.769-0.326-1.613-0.507-2.499-0.507c-0.887,0-1.732,0.181-2.501,0.507
		c-1.593,0.676-2.853,1.979-3.482,3.596c-0.28,0.721-0.44,1.502-0.44,2.32c0,0.957,0.217,1.863,0.594,2.68
		c1.018,2.206,3.245,3.743,5.83,3.743c2.584,0,4.811-1.537,5.829-3.743c0.377-0.816,0.593-1.723,0.593-2.68
		c0-0.818-0.16-1.6-0.44-2.32C229.206,193.461,227.945,192.157,226.353,191.482z"/>
	<path fill="none" d="M46.202,195.078v-3.573c-0.781-0.339-1.642-0.529-2.547-0.529c-0.868,0-1.696,0.175-2.453,0.489v3.613H40.5
		h-2.828c-0.28,0.721-0.44,1.502-0.44,2.32c0,0.957,0.216,1.863,0.594,2.68c1.018,2.206,3.245,3.743,5.83,3.743
		c2.584,0,4.811-1.537,5.829-3.743c0.377-0.816,0.593-1.723,0.593-2.68c0-0.818-0.16-1.6-0.44-2.32h-3.06H46.202z"/>
	<path fill="none" d="M46.202,191.505v3.573h0.375h3.06C49.014,193.478,47.772,192.187,46.202,191.505z"/>
	<path fill="none" d="M41.202,195.078v-3.613c-1.615,0.67-2.895,1.98-3.53,3.613H40.5H41.202z"/>
	<g>
		<path fill="none" d="M162.869,191.446c-0.743-0.301-1.554-0.471-2.403-0.471c-0.925,0-1.802,0.2-2.597,0.553
			c-1.547,0.688-2.771,1.967-3.387,3.55c-0.28,0.721-0.44,1.502-0.44,2.32c0,0.957,0.216,1.863,0.594,2.68
			c1.018,2.206,3.245,3.743,5.83,3.743c2.584,0,4.811-1.537,5.829-3.743c0.377-0.816,0.593-1.723,0.593-2.68
			c0-0.818-0.16-1.6-0.44-2.32C165.806,193.43,164.506,192.11,162.869,191.446z"/>
		<path fill="none" d="M110.614,146.159h8.233v10.69c0,0.363,0.073,0.68,0.426,0.766c0.354,0.087,0.634-0.076,0.803-0.398
			l7.969-15.304c0.188-0.359,0.176-0.949-0.035-1.298c-0.209-0.349-0.586-0.719-0.991-0.719h-5.824l3.188-11.954
			c0.091-0.348,0.016-0.797-0.205-1.082c-0.219-0.284-0.558-0.53-0.916-0.53h-8.042c-0.526,0-0.986,0.513-1.12,1.021l-4.606,17.59
			c-0.094,0.349-0.019,0.6,0.202,0.885C109.913,146.109,110.253,146.159,110.614,146.159z"/>
		<path fill="none" d="M46.059,191.446c-0.743-0.301-1.554-0.471-2.403-0.471c-0.925,0-1.802,0.2-2.597,0.553
			c-1.547,0.688-2.771,1.967-3.387,3.55c-0.28,0.721-0.44,1.502-0.44,2.32c0,0.957,0.216,1.863,0.594,2.68
			c1.018,2.206,3.245,3.743,5.83,3.743c2.584,0,4.811-1.537,5.829-3.743c0.377-0.816,0.593-1.723,0.593-2.68
			c0-0.818-0.16-1.6-0.44-2.32C48.995,193.43,47.695,192.11,46.059,191.446z"/>
		<rect x="14.175" y="149.121" fill="#e0e0e0" width="5" height="3.129"/>
		<rect x="14.175" y="126.75" fill="#e0e0e0" width="5" height="22.371"/>
		<path fill="#e0e0e0" d="M103.864,178.099l3.15-10.86h23.504l3.066,10.86h16.457l-20.975-60.685c-0.947-4.883-5.23-8.569-10.375-8.569
			c-5.188,0-9.494,3.749-10.393,8.69l-20.893,60.563H103.864z M109.493,144.941l4.606-17.59c0.134-0.509,0.594-1.021,1.12-1.021
			h8.042c0.358,0,0.697,0.246,0.916,0.53c0.221,0.285,0.296,0.734,0.205,1.082l-3.188,11.954h5.824c0.405,0,0.782,0.37,0.991,0.719
			c0.211,0.349,0.223,0.938,0.035,1.298l-7.969,15.304c-0.169,0.322-0.449,0.485-0.803,0.398c-0.353-0.086-0.426-0.402-0.426-0.766
			v-10.69h-8.233c-0.361,0-0.701-0.05-0.919-0.333C109.475,145.541,109.399,145.29,109.493,144.941z"/>
		<path fill="#e0e0e0" d="M142.274,96.891c-6.35-6.351-14.686-9.79-23.549-9.79c-8.865,0-17.332,3.439-23.551,9.79l3.971,3.969
			c5.291-5.292,12.303-8.203,19.711-8.203c7.41,0,14.422,2.911,19.713,8.203L142.274,96.891z"/>
		<path fill="#e0e0e0" d="M118.726,81.146c10.451,0,20.373,4.102,27.781,11.51l3.971-3.969c-8.469-8.467-19.846-13.098-31.752-13.098
			c-12.039,0-23.285,4.631-31.752,13.098l3.969,3.969C98.351,85.248,108.274,81.146,118.726,81.146z"/>
		<path fill="#e0e0e0" d="M102.585,104.299l3.969,3.969c3.307-3.308,7.541-5.027,12.172-5.027s8.996,1.853,12.172,5.027l3.969-3.969
			c-4.367-4.366-10.055-6.615-16.141-6.615S106.95,100.065,102.585,104.299z"/>
		<path fill="#e0e0e0" d="M46.202,161.667v16.432h5.719v-25.124l14.732,25.124h19.775l-17.494-25.869c4.676-1.022,8.236-3.091,10.678-6.204
			c2.439-3.113,3.66-7.154,3.66-12.123c0-3.273-0.621-6.27-1.863-8.988s-3.018-4.955-5.326-6.709
			c-2.049-1.549-4.482-2.652-7.303-3.311c-2.82-0.657-7.813-0.986-14.973-0.986H35.522v64.19h5.68v-16.432H46.202z"/>
		<rect x="263.374" y="129.25" fill="#e0e0e0" width="5" height="19.871"/>
		<rect x="263.374" y="149.121" fill="#e0e0e0" width="5" height="1.879"/>
		<path fill="#e0e0e0" d="M263.374,185.04c0,5.535-4.502,10.038-10.037,10.038h-19.331c-0.874-3.825-3.854-6.847-7.653-7.787v-9.192h-5v9.192
			c-3.8,0.941-6.779,3.963-7.653,7.787h-43.081c-0.882-3.857-3.904-6.899-7.749-7.812v-9.168h-5v9.218
			c-3.754,0.968-6.691,3.97-7.558,7.762H53.808c-0.87-3.809-3.829-6.82-7.605-7.774v-9.205h-5v9.181
			c-3.822,0.927-6.823,3.958-7.701,7.799h-4.287c-5.535,0-10.039-4.503-10.039-10.038v-32.79h-5v32.79
			c0,8.292,6.746,15.038,15.039,15.038h4.38c1.188,4.45,5.241,7.743,10.062,7.743c4.819,0,8.873-3.293,10.06-7.743h96.689
			c1.188,4.45,5.241,7.743,10.062,7.743c4.819,0,8.873-3.293,10.06-7.743h43.267c1.187,4.45,5.241,7.743,10.062,7.743
			c4.819,0,8.873-3.293,10.06-7.743h19.424c8.291,0,15.037-6.746,15.037-15.038V151h-5V185.04z M49.484,200.078
			c-1.019,2.206-3.245,3.743-5.829,3.743c-2.585,0-4.813-1.537-5.83-3.743c-0.378-0.816-0.594-1.723-0.594-2.68
			c0-0.818,0.16-1.6,0.44-2.32c0.616-1.583,1.84-2.862,3.387-3.55c0.795-0.353,1.672-0.553,2.597-0.553
			c0.85,0,1.66,0.17,2.403,0.471c1.637,0.664,2.937,1.983,3.578,3.632c0.28,0.721,0.44,1.502,0.44,2.32
			C50.077,198.355,49.861,199.262,49.484,200.078z M229.683,200.078c-1.019,2.206-3.245,3.743-5.829,3.743
			c-2.585,0-4.813-1.537-5.83-3.743c-0.378-0.816-0.594-1.723-0.594-2.68c0-0.818,0.16-1.6,0.44-2.32
			c0.616-1.583,1.84-2.862,3.387-3.55c0.795-0.353,1.672-0.553,2.597-0.553c0.85,0,1.66,0.17,2.403,0.471
			c1.637,0.664,2.937,1.983,3.578,3.632c0.28,0.721,0.44,1.502,0.44,2.32C230.275,198.355,230.06,199.262,229.683,200.078z
			 M166.295,200.078c-1.019,2.206-3.245,3.743-5.829,3.743c-2.585,0-4.813-1.537-5.83-3.743c-0.378-0.816-0.594-1.723-0.594-2.68
			c0-0.818,0.16-1.6,0.44-2.32c0.616-1.583,1.84-2.862,3.387-3.55c0.795-0.353,1.672-0.553,2.597-0.553
			c0.85,0,1.66,0.17,2.403,0.471c1.637,0.664,2.937,1.983,3.578,3.632c0.28,0.721,0.44,1.502,0.44,2.32
			C166.888,198.355,166.672,199.262,166.295,200.078z"/>
		<rect x="41.202" y="161.667" fill="#e0e0e0" width="5" height="16.432"/>
		<rect x="157.869" y="164" fill="#e0e0e0" width="5" height="14.099"/>
		<path fill="#e0e0e0" d="M162.869,164v14.099h5.472v-21.178h3.156h2.982c5.406,0,9.338-0.307,11.793-0.921c2.457-0.613,4.59-1.622,6.402-3.025
			c2.396-1.87,4.209-4.26,5.438-7.168c1.227-2.908,1.84-6.277,1.84-10.107c0-3.595-0.621-6.861-1.863-9.799
			s-3.047-5.386-5.414-7.344c-2.018-1.695-4.473-2.895-7.365-3.596c-2.895-0.701-7.922-1.053-15.084-1.053h-18.283v64.19h5.927V164
			H162.869z"/>
		<rect x="221.353" y="164" fill="#e0e0e0" width="5" height="14.099"/>
		<polygon fill="#e0e0e0" points="226.353,164 226.353,178.099 232.601,178.099 232.601,129.079 246.981,129.079 246.981,113.908 200.724,113.908
			200.724,129.079 215.106,129.079 215.106,178.099 221.353,178.099 221.353,164 		"/>
	</g>
</g>
<g>
	<path fill="#e0e0e0" d="M79.612,146.025c2.439-3.113,3.66-7.154,3.66-12.123c0-3.273-0.621-6.27-1.863-8.988s-3.018-4.955-5.326-6.709
		c-2.049-1.549-4.482-2.652-7.303-3.311c-2.82-0.657-7.813-0.986-14.973-0.986H35.522v64.19h16.398v-25.124l14.732,25.124h19.775
		l-17.494-25.869C73.61,151.207,77.171,149.139,79.612,146.025z"/>
	<path fill="#e0e0e0" d="M118.692,108.845c-5.188,0-9.494,3.749-10.393,8.69l-20.893,60.563h16.457l3.15-10.86h23.504l3.066,10.86h16.457
		l-20.975-60.685C128.12,112.531,123.837,108.845,118.692,108.845z M128.045,141.913l-7.969,15.304
		c-0.169,0.322-0.449,0.485-0.803,0.398c-0.353-0.086-0.426-0.402-0.426-0.766v-10.69h-8.233c-0.361,0-0.701-0.05-0.919-0.333
		c-0.221-0.285-0.296-0.536-0.202-0.885l4.606-17.59c0.134-0.509,0.594-1.021,1.12-1.021h8.042c0.358,0,0.697,0.246,0.916,0.53
		c0.221,0.285,0.296,0.734,0.205,1.082l-3.188,11.954h5.824c0.405,0,0.782,0.37,0.991,0.719
		C128.221,140.964,128.232,141.554,128.045,141.913z"/>
	<path fill="#e0e0e0" d="M142.274,96.891c-6.35-6.351-14.686-9.79-23.549-9.79c-8.865,0-17.332,3.439-23.551,9.79l3.971,3.969
		c5.291-5.292,12.303-8.203,19.711-8.203c7.41,0,14.422,2.911,19.713,8.203L142.274,96.891z"/>
	<path fill="#e0e0e0" d="M86.974,88.688l3.969,3.969c7.408-7.408,17.332-11.51,27.783-11.51s20.373,4.102,27.781,11.51l3.971-3.969
		c-8.469-8.467-19.846-13.098-31.752-13.098C106.687,75.59,95.44,80.221,86.974,88.688z"/>
	<path fill="#e0e0e0" d="M102.585,104.299l3.969,3.969c3.307-3.308,7.541-5.027,12.172-5.027s8.996,1.853,12.172,5.027l3.969-3.969
		c-4.367-4.366-10.055-6.615-16.141-6.615S106.95,100.065,102.585,104.299z"/>
	<path fill="#e0e0e0" d="M192.675,118.557c-2.018-1.695-4.473-2.895-7.365-3.596c-2.895-0.701-7.922-1.053-15.084-1.053h-18.283v64.19h16.398
		v-21.178h3.156h2.982c5.406,0,9.338-0.307,11.793-0.921c2.457-0.613,4.59-1.622,6.402-3.025c2.396-1.87,4.209-4.26,5.438-7.168
		c1.227-2.908,1.84-6.277,1.84-10.107c0-3.595-0.621-6.861-1.863-9.799S195.042,120.515,192.675,118.557z"/>
	<polygon fill="#e0e0e0" points="200.724,113.908 200.724,129.079 215.106,129.079 215.106,178.099 232.601,178.099 232.601,129.079
		246.981,129.079 246.981,113.908 	"/>
</g>
<path fill="#e0e0e0" d="M19.175,109.062c0-5.535,4.504-10.038,10.039-10.038h11.332c1.125,4.541,5.225,7.923,10.107,7.923
	c5.748,0,10.424-4.676,10.424-10.423s-4.676-10.423-10.424-10.423c-4.883,0-8.982,3.382-10.107,7.923H29.214
	c-8.293,0-15.039,6.746-15.039,15.038v17.688h5V109.062z M44.737,94.023c0.977-2.303,3.262-3.923,5.916-3.923
	c3.543,0,6.424,2.882,6.424,6.423s-2.881,6.423-6.424,6.423c-2.654,0-4.939-1.62-5.916-3.923c-0.326-0.769-0.506-1.613-0.506-2.5
	S44.411,94.792,44.737,94.023z"/>
<path fill="#e0e0e0" d="M253.337,94.023h-50.57c-1.125-4.541-5.225-7.923-10.109-7.923c-5.746,0-10.422,4.676-10.422,10.423
	s4.676,10.423,10.422,10.423c4.885,0,8.984-3.382,10.109-7.923h50.57c5.535,0,10.037,4.503,10.037,10.038v20.188h5v-20.188
	C268.374,100.77,261.628,94.023,253.337,94.023z M198.575,99.023c-0.979,2.303-3.262,3.923-5.918,3.923
	c-3.541,0-6.422-2.882-6.422-6.423s2.881-6.423,6.422-6.423c2.656,0,4.939,1.62,5.918,3.923c0.326,0.769,0.506,1.613,0.506,2.5
	S198.901,98.255,198.575,99.023z"/>
</svg>
